Raul Ruiz's Love Torn in a Dream is introduced with a fake newsreel, taking place in postwar France, in which the cast of the film meet with the producer, who explains the film's complex weave of nine narratives. A diagram in which each story is represented by a letter of the alphabet explicates the intertwining of the nine tales. As the producer explains each actor's role, the film begins. The stories, rooted in folklore, bump up against each other as the film leaps back in forth in time. They involve a jewel stolen from a painting, a mirror that "steals" what it reflects, a seminary student who dresses as a priest to hear the nuns' confessions, brothers who combat each other in their search for a group of rings, a man whose everyday life is predicted by a website 24 hours in advance, a Catholic who finds out he's really Jewish, and a treasure map that leads to a pirate's chest. Each of the main cast members plays multiple roles. Ruiz veterans Melvil Poupaud and Elsa Zylberstein play the lead roles, while Lambert Wilson, Christian Vadim, Diogo Dória, José Meireles, and Rogério Samora play supporting roles. 

   General
      Complete name : Combat d'amour en songe.avi
      Format : AVI
      Format/Info : Audio Video Interleave
      File size : 1.61 GiB
      Duration : 2h 1mn
      Overall bit rate : 1 896 Kbps
      Writing application : VirtualDubMod 1.5.10.2 (build 2540/release)
      Writing library : VirtualDubMod build 2540/release
   Video #0
      ID : 0
      Format : MPEG-4 Visual
      Format profile : AdvancedSimple@L5
      Format settings, BVOP : Yes
      Format settings, QPel : No
      Format settings, GMC : No warppoints
      Format settings, Matrix : Default (MPEG)
      Codec ID : XVID
      Codec ID/Hint : XviD
      Duration : 2h 1mn
      Bit rate : 1 630 Kbps
      Width : 688 pixels
      Height : 416 pixels
      Display aspect ratio : 1.654
      Frame rate : 25.000 fps
      Resolution : 24 bits
      Colorimetry : 4:2:0
      Scan type : Progressive
      Bits/(Pixel*Frame) : 0.228
      Stream size : 1.39 GiB (86%)
      Writing library : XviD 1.2.1 (UTC 2008-12-04)
   Audio #1
      ID : 1
      Format : AC-3
      Format/Info : Audio Coding 3
      Codec ID : 2000
      Duration : 2h 1mn
      Bit rate mode : Constant
      Bit rate : 256 Kbps
      Channel(s) : 2 channels
      Channel positions : L R
      Sampling rate : 48.0 KHz
      Video delay : 16ms
      Stream size : 223 MiB (14%)
      Alignment : Split accross interleaves
      Interleave, duration : 40 ms (1.00 video frame)
      Interleave, preload duration : 500 ms
 
http://www.imdb.com/title/tt0252335/

French, Portuguese and Spanish audio; English, French and Portuguese subtitles (idx/sub)

Posted at KG by duder, whom we thank

Raoul Ruiz - Combat d'amour en songe (2000)